<?xml version="1.0" encoding="utf-8"?>
<!-- Svg Vector Icons : http://www.onlinewebfonts.com/icon -->
<!DOCTYPE svg PUBLIC "-//W3C//DTD SVG 1.1//EN" "http://www.w3.org/Graphics/SVG/1.1/DTD/svg11.dtd">
<svg version="1.1" xmlns="http://www.w3.org/2000/svg" xmlns:xlink="http://www.w3.org/1999/xlink" x="0px" y="0px" viewBox="0 0 1000 1000" enable-background="new 0 0 1000 1000" xml:space="preserve">
<metadata> Svg Vector Icons : http://www.onlinewebfonts.com/icon </metadata>
<g><path d="M917.4,990H82.6C42.5,990,10,957.5,10,917.4V82.6C10,42.5,42.5,10,82.6,10h326.7v108.9H191.5c-40.1,0-72.6,32.5-72.6,72.6v617c0,40.1,32.5,72.6,72.6,72.6h617c40.1,0,72.6-32.5,72.6-72.6V627H990v290.4C990,957.5,957.5,990,917.4,990z M953.7,481.9h-36.3c-20.1,0-36.3-16.3-36.3-36.3V201.1L548.2,533.9c-14.2,14.2-37.1,14.2-51.3,0l-25.7-25.7c-14.2-14.2-14.2-37.2,0-51.3l338-338l-218.5,0c-20.1,0-36.3-16.3-36.3-36.3V46.3c0-20,16.2-36.3,36.3-36.3h326.7h36.3c20.1,0,36.3,16.3,36.3,36.3v36.3v363C990,465.6,973.8,481.9,953.7,481.9z"/></g>
</svg>